<svg width="106" height="107" viewBox="0 0 106 107" fill="none" xmlns="http://www.w3.org/2000/svg">
<g filter="url(#filter0_d_3_3068)">
<rect x="20" y="12.9097" width="66" height="66" rx="24" fill="url(#paint0_linear_3_3068)"/>
</g>
<path fill-rule="evenodd" clip-rule="evenodd" d="M53.1934 46.6596C55.837 46.6596 57.98 44.5166 57.98 41.873C57.98 39.2295 55.837 37.0864 53.1934 37.0864C50.5499 37.0864 48.4069 39.2295 48.4069 41.873C48.4069 44.5166 50.5499 46.6596 53.1934 46.6596Z" fill="white"/>
<path fill-rule="evenodd" clip-rule="evenodd" d="M57.3476 46.1237C56.2714 47.1498 54.8064 47.7812 53.1924 47.7812C51.5784 47.7812 50.1134 47.1498 49.0372 46.1237C48.8519 46.0778 48.6665 46.0324 48.4865 46.0094C48.3066 45.9864 48.1324 45.9864 47.9701 46.0115C47.8083 46.0361 47.6587 46.0863 47.4841 46.1488C47.3094 46.2108 47.1102 46.2856 46.8608 46.4351C46.6119 46.5847 46.3123 46.809 46.026 47.1835C45.7392 47.5569 45.4652 48.0809 45.2158 48.7042C44.9664 49.3271 44.742 50.0503 44.6176 50.7484C44.4932 51.4461 44.4681 52.1196 44.4558 52.6303C44.443 53.1415 44.443 53.4908 44.4932 53.8273C44.5428 54.1638 44.6422 54.4875 44.867 54.8118C45.0913 55.136 45.4401 55.4602 45.8513 55.7092C46.2626 55.9586 46.7363 56.1333 47.3847 56.2203C48.0326 56.3074 48.8551 56.3074 49.8522 56.3074H52.7438H53.1924H53.641H56.5326C57.5298 56.3074 58.3523 56.3074 59.0001 56.2203C59.6485 56.1333 60.1222 55.9586 60.5335 55.7092C60.9447 55.4602 61.2935 55.136 61.5178 54.8118C61.7427 54.4875 61.842 54.1638 61.8917 53.8273C61.9419 53.4908 61.9419 53.1415 61.9291 52.6303C61.9168 52.1196 61.8917 51.4461 61.7672 50.7484C61.6428 50.0503 61.4185 49.3271 61.169 48.7042C60.9196 48.0809 60.6456 47.5569 60.3588 47.1835C60.0726 46.809 59.7729 46.5847 59.524 46.4351C59.2746 46.2856 59.0754 46.2108 58.9008 46.1488C58.7261 46.0863 58.5766 46.0361 58.4147 46.0115C58.2524 45.9864 58.0783 45.9864 57.8983 46.0094C57.7183 46.0324 57.533 46.0778 57.3476 46.1237Z" fill="white"/>
<path fill-rule="evenodd" clip-rule="evenodd" d="M58.2929 44.2318C59.1436 45.0085 60.2763 45.4828 61.519 45.4828C64.1618 45.4828 66.3043 43.3398 66.3043 40.6963C66.3043 38.0527 64.1618 35.9097 61.519 35.9097C59.8218 35.9097 58.3303 36.7937 57.4812 38.1264C58.4392 39.0014 59.0406 40.262 59.0406 41.662C59.0406 42.6075 58.7661 43.4899 58.2929 44.2318Z" fill="white"/>
<path fill-rule="evenodd" clip-rule="evenodd" d="M47.707 44.2318C46.8563 45.0085 45.7236 45.4828 44.4809 45.4828C41.838 45.4828 39.6955 43.3398 39.6955 40.6963C39.6955 38.0527 41.838 35.9097 44.4809 35.9097C46.1781 35.9097 47.6696 36.7937 48.5187 38.1264C47.5606 39.0014 46.9593 40.262 46.9593 41.662C46.9593 42.6075 47.2338 43.4899 47.707 44.2318Z" fill="white"/>
<path fill-rule="evenodd" clip-rule="evenodd" d="M65.4096 45.124C64.3651 46.1191 62.9551 46.7435 61.3976 46.7798L61.5696 46.986C61.8565 47.3594 62.1306 47.8834 62.3802 48.5068C62.6297 49.1296 62.8541 49.8528 62.9786 50.551C63.1031 51.2486 63.1282 51.9222 63.1405 52.4328C63.1533 52.944 63.1533 53.2934 63.1031 53.6299C63.0534 53.9664 62.954 54.2901 62.729 54.6143C62.5618 54.8558 62.3257 55.0977 62.0462 55.3077H64.5943C65.5918 55.3077 66.4146 55.3077 67.0627 55.2206C67.7113 55.1335 68.1853 54.9589 68.5967 54.7094C69.0081 54.4605 69.357 54.1363 69.5814 53.812C69.8063 53.4878 69.9057 53.1641 69.9554 52.8276C70.0056 52.4911 70.0056 52.1417 69.9928 51.6305C69.9805 51.1199 69.9554 50.4463 69.8309 49.7487C69.7064 49.0505 69.482 48.3273 69.2325 47.7045C68.983 47.0811 68.7089 46.5571 68.422 46.1837C68.1356 45.8093 67.8358 45.5849 67.5869 45.4354C67.3373 45.2858 67.138 45.211 66.9633 45.1491C66.7886 45.0866 66.639 45.0364 66.4771 45.0118C66.3147 44.9867 66.1405 44.9867 65.9605 45.0096C65.7804 45.0326 65.595 45.078 65.4096 45.124Z" fill="white"/>
<path fill-rule="evenodd" clip-rule="evenodd" d="M40.5903 45.124C41.6348 46.1191 43.0448 46.7435 44.6023 46.7798L44.4303 46.986C44.1433 47.3594 43.8692 47.8834 43.6197 48.5068C43.3702 49.1296 43.1458 49.8528 43.0213 50.551C42.8968 51.2486 42.8717 51.9222 42.8594 52.4328C42.8466 52.944 42.8466 53.2934 42.8968 53.6299C42.9465 53.9664 43.0459 54.2901 43.2708 54.6143C43.4381 54.8558 43.6742 55.0977 43.9537 55.3077H41.4056C40.4081 55.3077 39.5853 55.3077 38.9372 55.2206C38.2885 55.1335 37.8146 54.9589 37.4032 54.7094C36.9918 54.4605 36.6429 54.1363 36.4185 53.812C36.1936 53.4878 36.0942 53.1641 36.0445 52.8276C35.9943 52.4911 35.9943 52.1417 36.0071 51.6305C36.0194 51.1199 36.0445 50.4463 36.169 49.7487C36.2935 49.0505 36.5179 48.3273 36.7674 47.7045C37.0169 47.0811 37.291 46.5571 37.5779 46.1837C37.8643 45.8093 38.164 45.5849 38.413 45.4354C38.6625 45.2858 38.8618 45.211 39.0365 45.1491C39.2113 45.0866 39.3609 45.0364 39.5228 45.0118C39.6852 44.9867 39.8594 44.9867 40.0394 45.0096C40.2195 45.0326 40.4049 45.078 40.5903 45.124Z" fill="white"/>
<defs>
<filter id="filter0_d_3_3068" x="0" y="0.909668" width="106" height="106" filterUnits="userSpaceOnUse" color-interpolation-filters="sRGB">
<feFlood flood-opacity="0" result="BackgroundImageFix"/>
<feColorMatrix in="SourceAlpha" type="matrix" values="0 0 0 0 0 0 0 0 0 0 0 0 0 0 0 0 0 0 127 0" result="hardAlpha"/>
<feMorphology radius="2" operator="erode" in="SourceAlpha" result="effect1_dropShadow_3_3068"/>
<feOffset dy="8"/>
<feGaussianBlur stdDeviation="11"/>
<feColorMatrix type="matrix" values="0 0 0 0 0.971137 0 0 0 0 0.341921 0 0 0 0 0.36709 0 0 0 0.3 0"/>
<feBlend mode="normal" in2="BackgroundImageFix" result="effect1_dropShadow_3_3068"/>
<feBlend mode="normal" in="SourceGraphic" in2="effect1_dropShadow_3_3068" result="shape"/>
</filter>
<linearGradient id="paint0_linear_3_3068" x1="33.5" y1="12.9097" x2="65" y2="78.9097" gradientUnits="userSpaceOnUse">
<stop stop-color="#FF858A"/>
<stop offset="1" stop-color="#F04148"/>
</linearGradient>
</defs>
</svg>
