<svg width="106" height="107" viewBox="0 0 106 107" fill="none" xmlns="http://www.w3.org/2000/svg">
<g filter="url(#filter0_d_3_3060)">
<rect x="20" y="12.9097" width="66" height="66" rx="24" fill="url(#paint0_linear_3_3060)"/>
</g>
<path fill-rule="evenodd" clip-rule="evenodd" d="M43.9787 28.9097C41.7813 28.9097 40 30.691 40 32.8884V58.9309C40 61.1284 41.7813 62.9097 43.9787 62.9097H62.7872C64.9846 62.9097 66.766 61.1284 66.766 58.9309V32.8884C66.766 30.691 64.9846 28.9097 62.7872 28.9097H43.9787ZM46.8723 33.2501C45.474 33.2501 44.3404 34.3837 44.3404 35.782C44.3404 37.1803 45.474 38.3139 46.8723 38.3139C48.2707 38.3139 49.4043 37.1803 49.4043 35.782C49.4043 34.3837 48.2707 33.2501 46.8723 33.2501ZM44.3404 45.9097C44.3404 44.5113 45.474 43.3778 46.8723 43.3778C48.2707 43.3778 49.4043 44.5113 49.4043 45.9097C49.4043 47.308 48.2707 48.4416 46.8723 48.4416C45.474 48.4416 44.3404 47.308 44.3404 45.9097ZM46.8723 53.5054C45.474 53.5054 44.3404 54.639 44.3404 56.0373C44.3404 57.4357 45.474 58.5692 46.8723 58.5692C48.2707 58.5692 49.4043 57.4357 49.4043 56.0373C49.4043 54.639 48.2707 53.5054 46.8723 53.5054ZM54.1064 34.6969C53.5071 34.6969 53.0213 35.1827 53.0213 35.782C53.0213 36.3813 53.5071 36.8671 54.1064 36.8671H62.7872C63.3865 36.8671 63.8723 36.3813 63.8723 35.782C63.8723 35.1827 63.3865 34.6969 62.7872 34.6969H54.1064ZM53.0213 45.9097C53.0213 45.3104 53.5071 44.8246 54.1064 44.8246H62.7872C63.3865 44.8246 63.8723 45.3104 63.8723 45.9097C63.8723 46.5089 63.3865 46.9948 62.7872 46.9948H54.1064C53.5071 46.9948 53.0213 46.5089 53.0213 45.9097ZM54.1064 54.9522C53.5071 54.9522 53.0213 55.4381 53.0213 56.0373C53.0213 56.6366 53.5071 57.1224 54.1064 57.1224H62.7872C63.3865 57.1224 63.8723 56.6366 63.8723 56.0373C63.8723 55.4381 63.3865 54.9522 62.7872 54.9522H54.1064Z" fill="white"/>
<defs>
<filter id="filter0_d_3_3060" x="0" y="0.909668" width="106" height="106" filterUnits="userSpaceOnUse" color-interpolation-filters="sRGB">
<feFlood flood-opacity="0" result="BackgroundImageFix"/>
<feColorMatrix in="SourceAlpha" type="matrix" values="0 0 0 0 0 0 0 0 0 0 0 0 0 0 0 0 0 0 127 0" result="hardAlpha"/>
<feMorphology radius="2" operator="erode" in="SourceAlpha" result="effect1_dropShadow_3_3060"/>
<feOffset dy="8"/>
<feGaussianBlur stdDeviation="11"/>
<feColorMatrix type="matrix" values="0 0 0 0 0.971137 0 0 0 0 0.341921 0 0 0 0 0.36709 0 0 0 0.3 0"/>
<feBlend mode="normal" in2="BackgroundImageFix" result="effect1_dropShadow_3_3060"/>
<feBlend mode="normal" in="SourceGraphic" in2="effect1_dropShadow_3_3060" result="shape"/>
</filter>
<linearGradient id="paint0_linear_3_3060" x1="33.5" y1="12.9097" x2="65" y2="78.9097" gradientUnits="userSpaceOnUse">
<stop stop-color="#FF858A"/>
<stop offset="1" stop-color="#F04148"/>
</linearGradient>
</defs>
</svg>
