<svg width="106" height="107" viewBox="0 0 106 107" fill="none" xmlns="http://www.w3.org/2000/svg">
<g filter="url(#filter0_d_3_3082)">
<rect x="20" y="10.9097" width="66" height="66" rx="24" fill="url(#paint0_linear_3_3082)"/>
</g>
<path d="M44.2891 34.7713L46.4393 36.9215C46.5736 36.16 46.9768 35.4433 47.5592 34.9057C48.9926 33.5618 51.322 33.517 52.7555 34.8609C52.8451 34.9505 52.9347 35.0401 53.0242 35.1297C53.6066 35.8016 53.965 36.6528 53.965 37.5487C53.965 37.7279 53.965 37.907 53.9202 38.0414C53.8306 38.8925 53.4722 39.6541 52.8451 40.2812C52.3075 40.8188 51.6356 41.1771 50.874 41.3115L53.0242 43.4617L55.6224 40.8636C55.6672 40.8188 55.6672 40.8188 55.712 40.8188C55.712 40.8188 55.712 40.8188 55.7568 40.8188C55.8016 40.8188 55.8016 40.8188 55.8464 40.8188C55.8912 40.8188 55.936 40.8188 55.936 40.8188C56.0256 40.8636 56.1152 40.9531 56.1152 41.0875C56.1152 41.9387 56.4735 42.7002 57.0559 43.2825C57.683 43.9097 58.4893 44.2232 59.3404 44.2232C59.3404 44.2232 59.3404 44.2232 59.3852 44.2232C59.654 44.2232 59.878 44.1784 60.1468 44.1336C60.7291 43.9993 61.2667 43.6857 61.6698 43.2377C62.3866 42.4314 62.6553 41.3563 62.4314 40.326C62.297 39.7885 62.0282 39.2957 61.6698 38.8925C61.4459 38.6686 61.1771 38.4446 60.9083 38.3102C60.6395 38.1758 60.3708 38.0862 60.102 37.9966C59.9676 37.9518 59.8332 37.9518 59.6988 37.907C59.6092 37.907 59.4748 37.907 59.3852 37.907C59.2509 37.907 59.1613 37.8174 59.1165 37.7279C59.0717 37.6383 59.1165 37.5039 59.1613 37.4143L61.7594 34.8161L54.5025 27.5144C53.6962 26.7081 52.3523 26.7081 51.546 27.5144L44.2891 34.7713Z" fill="white"/>
<path d="M69.4177 42.4315L62.1608 35.1746L60.0106 37.3248C60.7721 37.4591 61.4888 37.8623 62.0264 38.3999C63.3703 39.8333 63.415 42.1627 62.0712 43.5962C61.3544 44.3577 60.4137 44.8057 59.3834 44.8057C58.3531 44.8505 57.3676 44.4473 56.6509 43.6858C56.1133 43.1482 55.755 42.4763 55.6206 41.7147L53.4256 43.9097L56.0237 46.5079C56.1133 46.5975 56.1133 46.7319 56.0685 46.8215C56.0237 46.9111 55.9342 47.0006 55.7998 47.0006C54.9486 47.0006 54.1871 47.359 53.6048 47.9414C52.9776 48.5685 52.6641 49.3748 52.6641 50.2707C52.6641 51.1219 53.0224 51.9282 53.6944 52.5553C53.8735 52.7345 54.0975 52.9137 54.3663 53.0033C55.531 53.6304 57.054 53.4512 58.0844 52.5105C58.7115 51.9282 59.0699 51.1219 59.0699 50.2707C59.0699 50.1364 59.1595 50.0468 59.249 50.002C59.3386 49.9572 59.473 50.002 59.5626 50.0468L62.1608 52.6449L69.4177 45.388C69.8208 44.9848 70.0448 44.4473 70.0448 43.9097C70.0448 43.3274 69.8208 42.8346 69.4177 42.4315Z" fill="white"/>
<path d="M59.6074 50.8979C59.473 51.6594 59.0699 52.3762 58.4875 52.9137C57.0541 54.2576 54.7247 54.3024 53.2912 52.9585C52.5297 52.2418 52.0817 51.3011 52.0817 50.2708C52.0817 49.5092 52.3057 48.7477 52.7089 48.1206C52.8432 47.8966 53.0224 47.7174 53.2016 47.5382C53.7392 47.0007 54.4111 46.6423 55.1726 46.5079L53.0224 44.3129L50.4243 46.9111C50.3347 47.0455 50.2003 47.0455 50.1107 47.0007C50.0211 46.9559 49.9315 46.8663 49.9315 46.7319C49.9315 45.8808 49.5732 45.1192 48.9908 44.5369C48.3637 43.9098 47.5573 43.5962 46.6614 43.5962C46.5718 43.5962 46.4375 43.5962 46.3479 43.5962C45.5863 43.6858 44.9144 44.0441 44.3768 44.5817C43.5257 45.4776 43.3465 46.8215 43.7497 47.9414C43.7497 47.9862 43.7945 48.031 43.7945 48.0758C43.7945 48.1206 43.8393 48.1654 43.8393 48.2102C43.9737 48.4789 44.1529 48.7477 44.3768 48.9717C44.9592 49.5988 45.7655 49.9572 46.6166 49.9572C46.751 49.9572 46.8406 50.0468 46.8854 50.1364C46.9302 50.226 46.8854 50.3604 46.8406 50.4499L44.2425 53.0481L51.4994 60.305C52.3057 61.1113 53.6496 61.1113 54.4559 60.305L61.7128 53.0481L59.6074 50.8979Z" fill="white"/>
<path d="M36.6271 45.3878L43.8841 52.6447L46.0343 50.4945C45.2727 50.3602 44.556 49.957 44.0184 49.3746C42.6746 47.9412 42.6298 45.6118 43.9736 44.1783C44.6904 43.4168 45.6311 42.9688 46.6614 42.9688C47.6917 42.9688 48.6772 43.3272 49.3939 44.0887C49.9315 44.6263 50.2899 45.2982 50.4242 46.0598L52.5744 43.9096L49.9763 41.3114C49.8867 41.2218 49.8867 41.0874 49.9315 40.9978C49.9763 40.9082 50.0659 40.8186 50.2003 40.8186C51.0514 40.8186 51.8129 40.4603 52.3953 39.8779C52.4848 39.7883 52.5296 39.6988 52.6192 39.654C53.112 39.0716 53.336 38.3549 53.336 37.5934C53.336 36.7422 52.9776 35.9359 52.3057 35.3088C51.0962 34.1889 49.1252 34.1889 47.9605 35.3536C47.3333 35.9359 46.975 36.7422 46.975 37.5934C46.975 37.7277 46.8854 37.8173 46.7958 37.8621C46.7062 37.9069 46.5718 37.8621 46.4822 37.8173L43.8841 35.2192L36.6271 42.4313C36.224 42.8345 36 43.3272 36 43.9096C36 44.4919 36.224 44.9847 36.6271 45.3878Z" fill="white"/>
<defs>
<filter id="filter0_d_3_3082" x="0" y="0.909668" width="106" height="106" filterUnits="userSpaceOnUse" color-interpolation-filters="sRGB">
<feFlood flood-opacity="0" result="BackgroundImageFix"/>
<feColorMatrix in="SourceAlpha" type="matrix" values="0 0 0 0 0 0 0 0 0 0 0 0 0 0 0 0 0 0 127 0" result="hardAlpha"/>
<feMorphology radius="2" operator="erode" in="SourceAlpha" result="effect1_dropShadow_3_3082"/>
<feOffset dy="10"/>
<feGaussianBlur stdDeviation="11"/>
<feColorMatrix type="matrix" values="0 0 0 0 0.427083 0 0 0 0 0.671455 0 0 0 0 1 0 0 0 0.36 0"/>
<feBlend mode="normal" in2="BackgroundImageFix" result="effect1_dropShadow_3_3082"/>
<feBlend mode="normal" in="SourceGraphic" in2="effect1_dropShadow_3_3082" result="shape"/>
</filter>
<linearGradient id="paint0_linear_3_3082" x1="33.5" y1="10.9097" x2="65" y2="76.9097" gradientUnits="userSpaceOnUse">
<stop stop-color="#5CA1FE"/>
<stop offset="1" stop-color="#217BF4"/>
</linearGradient>
</defs>
</svg>
