<svg width="106" height="107" viewBox="0 0 106 107" fill="none" xmlns="http://www.w3.org/2000/svg">
<g filter="url(#filter0_d_3_3041)">
<rect x="20" y="10.9097" width="66" height="66" rx="24" fill="url(#paint0_linear_3_3041)"/>
</g>
<path fill-rule="evenodd" clip-rule="evenodd" d="M47.6349 44.2141C51.1525 44.2141 54.0042 41.3625 54.0042 37.8449C54.0042 34.3272 51.1525 31.4756 47.6349 31.4756C44.1173 31.4756 41.2656 34.3272 41.2656 37.8449C41.2656 41.3625 44.1173 44.2141 47.6349 44.2141Z" fill="white"/>
<path fill-rule="evenodd" clip-rule="evenodd" d="M53.1641 43.5011C51.7321 44.8665 49.7827 45.7066 47.635 45.7066C45.4873 45.7066 43.5378 44.8665 42.1058 43.5011C41.8592 43.44 41.6126 43.3796 41.3731 43.349C41.1336 43.3184 40.9019 43.3184 40.6859 43.3518C40.4705 43.3845 40.2715 43.4513 40.0391 43.5345C39.8067 43.617 39.5416 43.7165 39.2098 43.9155C38.8786 44.1145 38.4799 44.413 38.099 44.9113C37.7173 45.4081 37.3527 46.1054 37.0208 46.9349C36.6889 47.7636 36.3905 48.726 36.2249 49.655C36.0593 50.5833 36.0259 51.4796 36.0095 52.1591C35.9925 52.8393 35.9925 53.3041 36.0593 53.7519C36.1254 54.1997 36.2576 54.6304 36.5568 55.0619C36.8552 55.4933 37.3193 55.9248 37.8666 56.256C38.4138 56.5879 39.0442 56.8204 39.9069 56.9362C40.769 57.0521 41.8635 57.0521 43.1903 57.0521H47.038H47.635H48.2319H52.0796C53.4064 57.0521 54.5009 57.0521 55.363 56.9362C56.2257 56.8204 56.8561 56.5879 57.4034 56.256C57.9506 55.9248 58.4147 55.4933 58.7132 55.0619C59.0124 54.6304 59.1445 54.1997 59.2106 53.7519C59.2774 53.3041 59.2774 52.8393 59.2604 52.1591C59.244 51.4796 59.2106 50.5833 59.045 49.655C58.8795 48.726 58.581 47.7636 58.2491 46.9349C57.9172 46.1054 57.5526 45.4081 57.171 44.9113C56.79 44.413 56.3913 44.1145 56.0602 43.9155C55.7283 43.7165 55.4632 43.617 55.2308 43.5345C54.9984 43.4513 54.7994 43.3845 54.5841 43.3518C54.368 43.3184 54.1363 43.3184 53.8968 43.349C53.6573 43.3796 53.4107 43.44 53.1641 43.5011Z" fill="white"/>
<path fill-rule="evenodd" clip-rule="evenodd" d="M54.4239 40.9836C55.5558 42.017 57.063 42.6482 58.7166 42.6482C62.2333 42.6482 65.0843 39.7966 65.0843 36.2789C65.0843 32.7613 62.2333 29.9097 58.7166 29.9097C56.4583 29.9097 54.4736 31.086 53.3438 32.8594C54.6186 34.0236 55.4187 35.7011 55.4187 37.564C55.4187 38.8221 55.0535 39.9963 54.4239 40.9836Z" fill="white"/>
<path fill-rule="evenodd" clip-rule="evenodd" d="M63.8933 42.1705C62.5034 43.4947 60.6271 44.3256 58.5547 44.3739L58.7836 44.6483C59.1654 45.1451 59.5301 45.8424 59.8621 46.6719C60.1942 47.5007 60.4928 48.463 60.6584 49.392C60.8241 50.3203 60.8575 51.2166 60.8738 51.8961C60.8909 52.5763 60.8909 53.0412 60.8241 53.4889C60.758 53.9367 60.6257 54.3675 60.3264 54.7989C60.1039 55.1202 59.7896 55.4422 59.4178 55.7215H62.8084C64.1357 55.7215 65.2306 55.7215 66.093 55.6056C66.9561 55.4898 67.5867 55.2574 68.1342 54.9254C68.6816 54.5942 69.1459 54.1628 69.4445 53.7313C69.7438 53.2999 69.876 52.8692 69.9421 52.4214C70.009 51.9736 70.009 51.5087 69.9919 50.8285C69.9755 50.149 69.9421 49.2527 69.7765 48.3244C69.6108 47.3955 69.3122 46.4331 68.9802 45.6043C68.6482 44.7748 68.2835 44.0775 67.9017 43.5807C67.5206 43.0825 67.1218 42.7839 66.7904 42.5849C66.4584 42.3859 66.1932 42.2864 65.9608 42.2039C65.7283 42.1208 65.5292 42.054 65.3138 42.0213C65.0976 41.9879 64.8659 41.9879 64.6263 42.0184C64.3867 42.049 64.14 42.1094 63.8933 42.1705Z" fill="white"/>
<defs>
<filter id="filter0_d_3_3041" x="0" y="0.909668" width="106" height="106" filterUnits="userSpaceOnUse" color-interpolation-filters="sRGB">
<feFlood flood-opacity="0" result="BackgroundImageFix"/>
<feColorMatrix in="SourceAlpha" type="matrix" values="0 0 0 0 0 0 0 0 0 0 0 0 0 0 0 0 0 0 127 0" result="hardAlpha"/>
<feMorphology radius="2" operator="erode" in="SourceAlpha" result="effect1_dropShadow_3_3041"/>
<feOffset dy="10"/>
<feGaussianBlur stdDeviation="11"/>
<feColorMatrix type="matrix" values="0 0 0 0 0.427083 0 0 0 0 0.671455 0 0 0 0 1 0 0 0 0.36 0"/>
<feBlend mode="normal" in2="BackgroundImageFix" result="effect1_dropShadow_3_3041"/>
<feBlend mode="normal" in="SourceGraphic" in2="effect1_dropShadow_3_3041" result="shape"/>
</filter>
<linearGradient id="paint0_linear_3_3041" x1="33.5" y1="10.9097" x2="65" y2="76.9097" gradientUnits="userSpaceOnUse">
<stop stop-color="#5CA1FE"/>
<stop offset="1" stop-color="#217BF4"/>
</linearGradient>
</defs>
</svg>
