<svg width="106" height="107" viewBox="0 0 106 107" fill="none" xmlns="http://www.w3.org/2000/svg">
<g filter="url(#filter0_d_3_3052)">
<rect x="20" y="10.9097" width="66" height="66" rx="24" fill="url(#paint0_linear_3_3052)"/>
</g>
<path d="M70 40.8429V50.4326C69.9992 51.126 69.7234 51.7908 69.2331 52.2811C68.7428 52.7715 68.078 53.0473 67.3846 53.048H66.5128V56.5352C66.5127 56.7009 66.4654 56.8631 66.3765 57.003C66.2875 57.1428 66.1606 57.2543 66.0106 57.3246C65.8605 57.3949 65.6936 57.421 65.5292 57.3999C65.3649 57.3788 65.2099 57.3112 65.0826 57.2053L60.0944 53.048H51.6923C50.9989 53.0473 50.3341 52.7715 49.8438 52.2811C49.3535 51.7908 49.0777 51.126 49.0769 50.4326V49.5608H57.7949C58.9505 49.5595 60.0585 49.0998 60.8756 48.2826C61.6928 47.4654 62.1525 46.3575 62.1538 45.2019V38.2275H67.3846C68.078 38.2283 68.7428 38.5041 69.2331 38.9944C69.7234 39.4847 69.9992 40.1495 70 40.8429ZM57.7949 47.8172H45.9908L41.0205 53.6147C40.9046 53.7497 40.7501 53.8461 40.5778 53.8907C40.4055 53.9354 40.2237 53.9263 40.0568 53.8646C39.8898 53.8029 39.7458 53.6916 39.6439 53.5456C39.5421 53.3996 39.4874 53.226 39.4872 53.048V47.8172H38.6154C37.922 47.8165 37.2572 47.5407 36.7669 47.0504C36.2766 46.5601 36.0008 45.8953 36 45.2019V32.9967C36.0008 32.3033 36.2766 31.6385 36.7669 31.1482C37.2572 30.6579 37.922 30.3821 38.6154 30.3813H57.7949C58.4883 30.3821 59.1531 30.6579 59.6434 31.1482C60.1337 31.6385 60.4095 32.3033 60.4103 32.9967V45.2019C60.4095 45.8953 60.1337 46.5601 59.6434 47.0504C59.1531 47.5407 58.4883 47.8165 57.7949 47.8172ZM55.1795 40.8429C55.1795 40.6117 55.0876 40.3899 54.9241 40.2264C54.7607 40.0629 54.5389 39.9711 54.3077 39.9711H42.1026C41.8713 39.9711 41.6496 40.0629 41.4861 40.2264C41.3226 40.3899 41.2308 40.6117 41.2308 40.8429C41.2308 41.0741 41.3226 41.2958 41.4861 41.4593C41.6496 41.6228 41.8713 41.7147 42.1026 41.7147H54.3077C54.5389 41.7147 54.7607 41.6228 54.9241 41.4593C55.0876 41.2958 55.1795 41.0741 55.1795 40.8429ZM55.1795 36.4839C55.1795 36.2527 55.0876 36.031 54.9241 35.8675C54.7607 35.704 54.5389 35.6121 54.3077 35.6121H42.1026C41.8713 35.6121 41.6496 35.704 41.4861 35.8675C41.3226 36.031 41.2308 36.2527 41.2308 36.4839C41.2308 36.7151 41.3226 36.9369 41.4861 37.1004C41.6496 37.2639 41.8713 37.3557 42.1026 37.3557H54.3077C54.5389 37.3557 54.7607 37.2639 54.9241 37.1004C55.0876 36.9369 55.1795 36.7151 55.1795 36.4839Z" fill="white"/>
<defs>
<filter id="filter0_d_3_3052" x="0" y="0.909668" width="106" height="106" filterUnits="userSpaceOnUse" color-interpolation-filters="sRGB">
<feFlood flood-opacity="0" result="BackgroundImageFix"/>
<feColorMatrix in="SourceAlpha" type="matrix" values="0 0 0 0 0 0 0 0 0 0 0 0 0 0 0 0 0 0 127 0" result="hardAlpha"/>
<feMorphology radius="2" operator="erode" in="SourceAlpha" result="effect1_dropShadow_3_3052"/>
<feOffset dy="10"/>
<feGaussianBlur stdDeviation="11"/>
<feColorMatrix type="matrix" values="0 0 0 0 0.97947 0 0 0 0 0.730307 0 0 0 0 0.328531 0 0 0 0.3 0"/>
<feBlend mode="normal" in2="BackgroundImageFix" result="effect1_dropShadow_3_3052"/>
<feBlend mode="normal" in="SourceGraphic" in2="effect1_dropShadow_3_3052" result="shape"/>
</filter>
<linearGradient id="paint0_linear_3_3052" x1="33.5" y1="10.9097" x2="65" y2="76.9097" gradientUnits="userSpaceOnUse">
<stop stop-color="#FFD085"/>
<stop offset="1" stop-color="#FFAF2E"/>
</linearGradient>
</defs>
</svg>
